<svg id="Layer_1_1_" 
enable-background="new 0 0 64 64" 
width="40px"
height="40px" 
fill="rgba(209, 72, 72, 0.8)" 
viewBox="0 0 64 64"
xmlns="http://www.w3.org/2000/svg">
<path d="m58.353 32c-1.209 0-2.32.708-2.831 1.803l-.804 1.724-.039-.334c-.109-.93-.575-1.76-1.312-2.337-.736-.578-1.654-.834-2.583-.716-1.51.189-2.713 1.321-3.003 2.882l-.262 2.177c-1.259-1.009-3.04-1.085-4.375-.126l-3.767 2.704c-1.909 1.369-4.323 1.878-6.622 1.401l-2.77-.577c-2.01-.419-4.083-.237-5.992.525l-5.993 2.397v-.523c0-.553-.448-1-1-1h-3v-1c0-.553-.448-1-1-1h-10c-.552 0-1 .447-1 1v20c0 .553.448 1 1 1h10 4c.552 0 1-.447 1-1l19.083-.004 12-1c.236-.02.457-.122.624-.289l8-8c.135-.135.228-.305.269-.49l3.426-15.416c.207-.93-.017-1.889-.613-2.632s-1.484-1.169-2.436-1.169zm-46.353 28h-8v-18h8zm39.031-25.876c.397-.05.788.059 1.102.306.314.246.513.6.56.997l.417 3.547-3.796 8.135-1.914.348 1.362-4.029c.022-.065.037-.133.045-.201l.95-7.901c.118-.638.631-1.121 1.274-1.202zm-9.06 14.319 4.506-4.505-1.328 3.927zm-25.971 11.557h-2v-16h2zm43.45-24.633-3.363 15.132-7.535 7.535-11.552.966h-19v-13.323l6.735-2.694c1.543-.617 3.217-.763 4.841-.426l2.77.577c2.842.594 5.832-.037 8.196-1.733l3.767-2.704c.645-.464 1.523-.396 2.09.158.314.307.488.718.491 1.156.002.439-.167.853-.478 1.163l-8.118 8.118c-.31.31-.382.783-.179 1.171.203.389.636.604 1.064.52l11-2c.319-.058.59-.267.728-.561l6.428-13.774c.328-.706 1.408-.835 1.895-.228.213.268.294.613.22.947z"/><path d="m38.924 2.617c-.155-.374-.52-.617-.924-.617h-6c-.265 0-.52.105-.707.293l-2.999 2.999c-.182.181-.294.431-.294.708v6c0 .553.448 1 1 1h6c.277 0 .527-.112.708-.294l2.999-2.999c.188-.187.293-.441.293-.707v-6h-.009c0-.129-.016-.259-.067-.383zm-6.51 1.383h3.172l-1 1h-3.172zm1.586 7h-4v-4h4zm2-1.414v-3.172l1-1v3.172z"/><path d="m40 22v6c0 .409.249.776.628.929l5 2c.121.048.247.071.372.071.127 0 .25-.033.368-.08l.004.009 5-2c.379-.153.628-.52.628-.929v-6c0-.409-.249-.776-.628-.929l-5-2c-.239-.096-.504-.096-.743 0l-5 2c-.38.153-.629.52-.629.929zm2 5.323v-3.846l3 1.2v3.846zm5 1.2v-3.845l3-1.2v3.846zm-1-7.446 2.308.923-2.308.923-2.308-.923z"/><path d="m28 18h2v7h-2z"/><path d="m28 28h2v2h-2z"/><path d="m43 2h2v2h-2z"/><path d="m43 6h2v7h-2z"/><path d="m47 8h2v6h-2z"/><path d="m33 22h2v3h-2z"/><path d="m33 27h2v2h-2z"/></svg>